<?xml version="1.0" encoding="utf-8"?>
<svg viewBox="0 0 500 500" xmlns="http://www.w3.org/2000/svg">
  <defs/>
  <path d="M 246.679 36.267 C 129.699 34.687 34.199 130.187 35.779 247.167 C 37.339 359.357 128.689 450.707 240.879 452.267 C 357.879 453.867 453.359 358.367 451.759 241.387 C 450.219 129.177 358.869 37.827 246.679 36.267 Z M 373.099 363.517 C 371.402 365.352 368.456 365.199 366.959 363.197 C 358.014 351.495 347.061 341.475 334.609 333.607 C 309.149 317.267 276.889 308.267 243.779 308.267 C 210.669 308.267 178.409 317.267 152.949 333.607 C 140.498 341.472 129.544 351.488 120.599 363.187 C 119.102 365.189 116.156 365.342 114.459 363.507 C 85.116 331.831 68.494 290.44 67.779 247.267 C 66.149 149.957 145.999 68.507 243.349 68.267 C 340.699 68.027 419.779 147.077 419.779 244.267 C 419.812 288.481 403.139 331.075 373.099 363.517 Z" style="fill: rgb(255, 200, 100);"/>
  <path d="M 243.779 132.267 C 224.059 132.267 206.229 139.657 193.559 153.087 C 180.889 166.517 174.559 185.087 175.989 205.017 C 178.889 244.267 209.299 276.267 243.779 276.267 C 278.259 276.267 308.609 244.267 311.569 205.027 C 313.049 185.287 306.769 166.887 293.889 153.207 C 281.169 139.707 263.369 132.267 243.779 132.267 Z" style="fill: rgb(255, 200, 100);"/>
</svg>